<?xml version="1.0" encoding="UTF-8"?>
<svg width="392px" height="56px" viewBox="0 0 392 56" version="1.1" xmlns="http://www.w3.org/2000/svg" xmlns:xlink="http://www.w3.org/1999/xlink">
    <g id="Page-1" stroke="none" stroke-width="1" fill="none" fill-rule="evenodd">
        <g id="Proposal---Sukhumvit-Set" fill="#FFFFFF">
            <g id="Group-2" transform="translate(0.000000, 3.000000)">
                <g id="Group" fill-rule="nonzero">
                    <path d="M4,12 L4,46 L37.0232558,46 L37.0232558,12 L4,12 Z M2,8 L39.0232558,8 C40.1278253,8 41.0232558,8.8954305 41.0232558,10 L41.0232558,48 C41.0232558,49.1045695 40.1278253,50 39.0232558,50 L2,50 C0.8954305,50 1.3527075e-16,49.1045695 -1.23259516e-31,48 L-2.22044605e-16,10 C-3.57315355e-16,8.8954305 0.8954305,8 2,8 Z" id="Rectangle"></path>
                    <path d="M12,4 L12,38 L46,38 L46,4 L12,4 Z M10,0 L48,0 C49.1045695,-2.02906125e-16 50,0.8954305 50,2 L50,40 C50,41.1045695 49.1045695,42 48,42 L10,42 C8.8954305,42 8,41.1045695 8,40 L8,2 C8,0.8954305 8.8954305,2.02906125e-16 10,0 Z" id="Rectangle-Copy"></path>
                </g>
                <path d="M81.05,26.6 L64.65,26.6 L64.65,42 L60.35,42 L60.35,8.3 L64.65,8.3 L64.65,22.6 L81.05,22.6 L81.05,8.3 L85.35,8.3 L85.35,42 L81.05,42 L81.05,26.6 Z M104.35,12.25 L104.35,42 L100.05,42 L100.05,12.25 L89.85,12.3 L89.85,8.3 L114.55,8.3 L114.55,12.3 L104.35,12.25 Z M132.55,36.55 L125.35,20.4 C124.949998,19.4999955 124.558335,18.583338 124.175,17.65 C123.791665,16.716662 123.416668,15.6333395 123.05,14.4 L122.95,14.4 C123.116668,15.9000075 123.225,17.283327 123.275,18.55 C123.325,19.816673 123.35,20.7999965 123.35,21.5 L123.35,42 L119.05,42 L119.05,8.3 L124.25,8.3 L132.2,26.25 C132.86667,27.6833405 133.399998,28.9249947 133.8,29.975 C134.200002,31.0250052 134.533332,31.88333 134.8,32.55 L134.9,32.55 C135.166668,31.88333 135.499998,31.0250052 135.9,29.975 C136.300002,28.9249947 136.83333,27.6833405 137.5,26.25 L145.45,8.3 L150.65,8.3 L150.65,42 L146.35,42 L146.35,21.5 C146.35,20.7999965 146.375,19.816673 146.425,18.55 C146.475,17.283327 146.583332,15.9000075 146.75,14.4 L146.65,14.4 C146.283332,15.6333395 145.908335,16.716662 145.525,17.65 C145.141665,18.583338 144.750002,19.4999955 144.35,20.4 L137.15,36.55 L132.55,36.55 Z M158.65,8.3 L162.95,8.3 L162.95,38 L178.85,38 L178.85,42 L158.65,42 L158.65,8.3 Z M193.65,12.9 C192.249993,12.9 190.875007,13.0749983 189.525,13.425 C188.174993,13.7750018 186.966672,14.1999975 185.9,14.7 L184.8,11.1 C185.866672,10.566664 187.166659,10.0833355 188.7,9.65 C190.233341,9.2166645 191.899991,9 193.7,9 C197.333352,9 199.999992,9.799992 201.7,11.4 C203.400009,13.000008 204.25,15.13332 204.25,17.8 C204.25,19.1666735 203.991669,20.4916602 203.475,21.775 C202.958331,23.0583398 202.266671,24.3249938 201.4,25.575 C200.533329,26.8250063 199.508339,28.0666605 198.325,29.3 C197.141661,30.5333395 195.900007,31.7666605 194.6,33 L189.35,38 L205.35,38 L205.35,42 L183.45,42 L183.45,38.75 L191.55,30.55 C192.916674,29.149993 194.124995,27.8916722 195.175,26.775 C196.225005,25.6583277 197.099997,24.6083382 197.8,23.625 C198.500004,22.6416617 199.033332,21.683338 199.4,20.75 C199.766669,19.816662 199.95,18.8333385 199.95,17.8 C199.95,16.133325 199.375006,14.900004 198.225,14.1 C197.074994,13.299996 195.55001,12.9 193.65,12.9 Z M227.2,11.7 C223.533315,11.7 220.658344,12.866655 218.575,15.2 C216.491656,17.533345 215.45,20.8499785 215.45,25.15 C215.45,29.3833545 216.466657,32.6833215 218.5,35.05 C220.533344,37.4166785 223.449981,38.6 227.25,38.6 C228.516673,38.6 229.774994,38.4750012 231.025,38.225 C232.275006,37.9749987 233.449995,37.583336 234.55,37.05 L235.65,40.7 C234.416661,41.300003 233.10834,41.7499985 231.725,42.05 C230.34166,42.3500015 228.816675,42.5 227.15,42.5 C224.38332,42.5 222.00001,42.0833375 220,41.25 C217.99999,40.4166625 216.341673,39.2416743 215.025,37.725 C213.708327,36.2083258 212.733337,34.383344 212.1,32.25 C211.466664,30.116656 211.15,27.750013 211.15,25.15 C211.15,22.616654 211.499997,20.283344 212.2,18.15 C212.900004,16.016656 213.924993,14.183341 215.275,12.65 C216.625007,11.116659 218.29999,9.92500425 220.3,9.075 C222.30001,8.22499575 224.583321,7.8 227.15,7.8 C228.916675,7.8 230.433327,7.933332 231.7,8.2 C232.966673,8.466668 234.183328,8.866664 235.35,9.4 L234.25,13 C232.383324,12.133329 230.033348,11.7 227.2,11.7 Z M260.1,32.95 L246.25,32.95 L243,42 L238.55,42 L251,8.3 L255.4,8.3 L267.85,42 L263.4,42 L260.1,32.95 Z M247.7,29.05 L258.7,29.05 L255.3,19.8 L253.25,13.2 L253.15,13.2 L251.1,19.8 L247.7,29.05 Z M290.85,30.05 C291.51667,31.116672 292.141664,32.2083278 292.725,33.325 C293.308336,34.4416723 293.783331,35.3833295 294.15,36.15 L294.25,36.15 C294.083332,34.9833275 293.975,33.8083393 293.925,32.625 C293.875,31.4416607 293.85,30.150007 293.85,28.75 L293.85,8.3 L298.15,8.3 L298.15,42 L293.55,42 L280.15,20.25 C279.48333,19.183328 278.858336,18.0916723 278.275,16.975 C277.691664,15.8583277 277.216669,14.9166705 276.85,14.15 L276.75,14.15 C276.916667,15.3166725 277.025,16.4916607 277.075,17.675 C277.125,18.8583393 277.15,20.149993 277.15,21.55 L277.15,42 L272.85,42 L272.85,8.3 L277.45,8.3 L290.85,30.05 Z M327.5,8.3 L331.95,8.3 L319.7,42 L315.3,42 L303.05,8.3 L307.5,8.3 L314.8,28.7 L317.45,37.35 L317.55,37.35 L320.2,28.7 L327.5,8.3 Z M355.4,32.95 L341.55,32.95 L338.3,42 L333.85,42 L346.3,8.3 L350.7,8.3 L363.15,42 L358.7,42 L355.4,32.95 Z M343,29.05 L354,29.05 L350.6,19.8 L348.55,13.2 L348.45,13.2 L346.4,19.8 L343,29.05 Z M375.8,42.5 C373.666656,42.5 371.883341,42.3250017 370.45,41.975 C369.01666,41.6249983 367.750006,41.1666695 366.65,40.6 L367.75,37.05 C368.683338,37.516669 369.833327,37.8999985 371.2,38.2 C372.566674,38.5000015 374.099992,38.65 375.8,38.65 C377.000006,38.65 378.099995,38.5416678 379.1,38.325 C380.100005,38.1083323 380.95833,37.7750023 381.675,37.325 C382.39167,36.8749977 382.958331,36.2916702 383.375,35.575 C383.791669,34.8583298 384,34.000005 384,33 C384,31.999995 383.783336,31.16667 383.35,30.5 C382.916665,29.83333 382.34167,29.2583358 381.625,28.775 C380.90833,28.2916642 380.066671,27.8750017 379.1,27.525 C378.133329,27.1749983 377.133339,26.833335 376.1,26.5 C375.099995,26.166665 374.041672,25.7750023 372.925,25.325 C371.808328,24.8749977 370.783338,24.2916703 369.85,23.575 C368.916662,22.8583298 368.150003,21.9583387 367.55,20.875 C366.949997,19.7916613 366.65,18.450008 366.65,16.85 C366.65,15.5499935 366.866665,14.3500055 367.3,13.25 C367.733336,12.1499945 368.416662,11.1916708 369.35,10.375 C370.283338,9.55832925 371.474993,8.92500225 372.925,8.475 C374.375007,8.02499775 376.09999,7.8 378.1,7.8 C379.766675,7.8 381.26666,7.95833175 382.6,8.275 C383.93334,8.59166825 385.183328,9.0333305 386.35,9.6 L385.25,13.15 C384.283329,12.683331 383.191673,12.316668 381.975,12.05 C380.758327,11.783332 379.466674,11.65 378.1,11.65 C375.499987,11.65 373.633339,12.1249952 372.5,13.075 C371.366661,14.0250047 370.8,15.2499925 370.8,16.75 C370.8,17.683338 370.999998,18.4666635 371.4,19.1 C371.800002,19.7333365 372.341663,20.283331 373.025,20.75 C373.708337,21.216669 374.499996,21.616665 375.4,21.95 C376.300005,22.283335 377.249995,22.616665 378.25,22.95 C379.383339,23.350002 380.541661,23.7999975 381.725,24.3 C382.908339,24.8000025 383.974995,25.4333295 384.925,26.2 C385.875005,26.9666705 386.649997,27.9083277 387.25,29.025 C387.850003,30.1416722 388.15,31.499992 388.15,33.1 C388.15,34.700008 387.850003,36.0916608 387.25,37.275 C386.649997,38.4583393 385.808339,39.4416627 384.725,40.225 C383.641661,41.0083372 382.341674,41.5833315 380.825,41.95 C379.308326,42.3166685 377.633343,42.5 375.8,42.5 Z" id="HTML2CANVAS"></path>
            </g>
        </g>
    </g>
</svg>
